<?xml version="1.0" encoding="UTF-8"?>
<svg width="24px" height="24px" viewBox="0 0 24 24" version="1.1" xmlns="http://www.w3.org/2000/svg" xmlns:xlink="http://www.w3.org/1999/xlink">
    <g stroke="none" stroke-width="1" fill="none" fill-rule="evenodd">
        <path d="M0 0 L24 0 L24 24 L0 24 L0 0 Z" fill="#FFFFFF"/>
        <path d="M18.68 11.67c0-.78-.07-1.53-.2-2.25H12v4.26h5.92c-.26 1.37-1.04 2.53-2.21 3.31v2.77h3.57c2.08-1.92 3.28-4.74 3.28-8.09z" fill="#4285F4"/>
        <path d="M12 23c2.97 0 5.46-.98 7.28-2.66l-3.57-2.77c-.98.66-2.23 1.06-3.71 1.06-2.86 0-5.29-1.93-6.16-4.53H2.18v2.84C3.99 20.53 7.7 23 12 23z" fill="#34A853"/>
        <path d="M5.84 14.09c-.22-.66-.35-1.36-.35-2.09s.13-1.43.35-2.09V7.38c0-2.09 1.13-3.28 3.14-3.28.88 0 1.6.4 2.09 1.09l1.06-2.18C10.45 3.82 9.68 3 8.56 3 5.46 3 3 5.14 3 8c0 2.17 1.18 3.95 2.84 4.81-.81 2.37-3.04 4.09-6.16 4.09-5.29 0-9.38-4.1-9.38-11.39 0-.78.08-1.53.2-2.25.84-2.9 3.06-5.44 6.16-5.44 2.64 0 4.94 1.6 6.16 4.09.12-.72.33-1.47.63-2.25H5.84z" fill="#FBBC05"/>
        <path d="M12 5.38c1.62 0 3.06.56 4.21 1.64l3.15-3.15C17.45 2.09 14.97 1 12 1 7.7 1 3.99 3.47 2.18 7.38h7.38c.12-1.07.5-2.03 1.09-2.84z" fill="#EA4335"/>
    </g>
</svg>
